<svg width="285" height="213" viewBox="0 0 285 213" fill="none" xmlns="http://www.w3.org/2000/svg">
<path d="M285 187.053H0V187.195H285V187.053Z" fill="#EBEBEB"/>
<path d="M256.443 196.208H237.564V196.351H256.443V196.208Z" fill="#EBEBEB"/>
<path d="M171.821 196.282H166.867V196.425H171.821V196.282Z" fill="#EBEBEB"/>
<path d="M236.989 190.928H201.968V191.07H236.989V190.928Z" fill="#EBEBEB"/>
<path d="M128.33 194.285H121.096V194.428H128.33V194.285Z" fill="#EBEBEB"/>
<path d="M116.024 194.285H95.0305V194.428H116.024V194.285Z" fill="#EBEBEB"/>
<path d="M44.3972 191.884H29.9021V192.026H44.3972V191.884Z" fill="#EBEBEB"/>
<path d="M90.5047 191.884H47.8174V192.026H90.5047V191.884Z" fill="#EBEBEB"/>
<path d="M135.09 161.673H25.0288C24.1666 161.672 23.3402 161.329 22.731 160.72C22.1219 160.111 21.7798 159.285 21.7798 158.424V3.97074C21.7873 3.11493 22.1327 2.29663 22.7411 1.69359C23.3494 1.09054 24.1715 0.751466 25.0288 0.75H135.09C135.953 0.75 136.781 1.09233 137.392 1.70167C138.002 2.31101 138.345 3.13745 138.345 3.99919V158.424C138.345 159.286 138.002 160.112 137.392 160.722C136.781 161.331 135.953 161.673 135.09 161.673ZM25.0288 0.863808C24.2044 0.865315 23.4142 1.19332 22.8318 1.77582C22.2494 2.35832 21.9223 3.14772 21.9223 3.97074V158.424C21.9223 159.247 22.2494 160.037 22.8318 160.619C23.4142 161.202 24.2044 161.53 25.0288 161.531H135.09C135.915 161.53 136.706 161.202 137.289 160.619C137.872 160.037 138.201 159.248 138.202 158.424V3.97074C138.201 3.14719 137.872 2.35781 137.289 1.77547C136.706 1.19313 135.915 0.865312 135.09 0.863808H25.0288Z" fill="#EBEBEB"/>
<path d="M258.387 161.673H148.32C147.457 161.672 146.63 161.329 146.02 160.72C145.41 160.111 145.066 159.285 145.065 158.424V3.97074C145.074 3.11441 145.421 2.29611 146.03 1.69323C146.639 1.09035 147.462 0.75145 148.32 0.75H258.387C259.243 0.752962 260.064 1.0927 260.671 1.69558C261.278 2.29846 261.622 3.11591 261.63 3.97074V158.424C261.63 159.284 261.289 160.109 260.681 160.718C260.073 161.327 259.248 161.67 258.387 161.673ZM148.32 0.863808C147.495 0.865312 146.704 1.19313 146.121 1.77547C145.537 2.35781 145.209 3.14719 145.207 3.97074V158.424C145.209 159.248 145.537 160.037 146.121 160.619C146.704 161.202 147.495 161.53 148.32 161.531H258.387C259.212 161.53 260.002 161.202 260.586 160.619C261.169 160.037 261.497 159.248 261.499 158.424V3.97074C261.497 3.14719 261.169 2.35781 260.586 1.77547C260.002 1.19313 259.212 0.865312 258.387 0.863808H148.32Z" fill="#EBEBEB"/>
<path d="M108.745 111.434L247.278 111.434V10.4127L108.745 10.4127V111.434Z" fill="#E6E6E6"/>
<path d="M102.623 111.434L245.858 111.434V10.4127L102.623 10.4127V111.434Z" fill="#F0F0F0"/>
<path d="M237.28 102.875V18.9707L111.19 18.9707V102.875L237.28 102.875Z" fill="#FAFAFA"/>
<path d="M206.631 102.869L177.925 18.9707H150.514L179.219 102.869H206.631Z" fill="white"/>
<path d="M173.331 102.869L144.626 18.9707H133.944L162.65 102.869H173.331Z" fill="white"/>
<path d="M112.284 102.875V18.9707H111.196V102.875H112.284Z" fill="#E6E6E6"/>
<path d="M36.805 83.9541H85.7224L85.7224 14.7195H36.805L36.805 83.9541Z" fill="#E0E0E0"/>
<path d="M33.3451 83.9541H83.7673L83.7673 14.7195H33.3451L33.3451 83.9541Z" fill="#F5F5F5"/>
<path d="M78.791 78.4914V20.1709L38.321 20.1709L38.321 78.4914H78.791Z" fill="white"/>
<path d="M55.8201 132.425C59.451 123.48 68.0865 120.151 71.0733 114.501C74.9778 107.103 74.955 96.0013 71.6433 92.0009C68.7477 88.5184 59.1717 112.054 58.0944 114.683C55.1389 121.778 53.2896 129.283 52.611 136.938C52.6908 131.412 52.7649 126.337 52.8276 122.422C53.0328 109.652 53.2836 105.544 53.3976 104.281C53.7966 103.66 54.2697 102.944 54.5376 102.574C56.8575 99.3131 61.9989 95.4265 64.5696 90.6865C68.3202 83.7613 67.716 75.4761 65.0826 72.392C62.3295 69.1655 57.4674 76.7906 54.8853 84.3417C52.3032 91.8928 53.4033 99.1367 52.6794 105.396C52.5312 106.625 52.3716 111.297 52.2291 117.784C51.4425 110.808 49.8807 106.136 46.9908 101.777C43.434 96.4224 40.3617 89.9012 37.4319 90.7434C34.5021 91.5856 36.0753 100.218 38.3952 106.272C40.47 111.667 50.6445 117.05 52.1436 121.386C51.9669 130.172 51.8073 141.302 51.699 151.676C50.8953 146.321 51.4482 145.872 48.1536 137.672C46.1985 132.801 38.19 126.792 37.221 130.138C36.252 133.484 37.7169 139.811 40.7436 144.25C43.1889 147.823 48.6096 147.818 49.8636 150.037C50.1543 150.555 51.1233 152.541 51.6762 153.679C51.5451 166.334 51.4881 177.51 51.5508 181.317L52.0752 181.357C52.0752 180.372 52.1151 173.959 52.2177 165.424C53.5344 160.871 62.3979 158.248 65.1339 153.531C67.9839 148.597 70.0587 142.839 68.8275 138.986C67.8015 135.771 59.7075 140.124 56.4528 145.468C54.2697 149.018 52.9359 152.802 52.3146 157.89C52.3887 152.085 52.4742 145.849 52.554 139.965C53.2209 138.485 54.72 135.105 55.8201 132.425Z" fill="#E6E6E6"/>
<path d="M61.0243 187.053H42.3967C41.9045 187.052 41.4275 186.882 41.0463 186.571C40.6652 186.26 40.4033 185.827 40.3048 185.345L38.9824 178.858H64.4443L63.1219 185.362C63.0179 185.841 62.7531 186.269 62.3716 186.577C61.99 186.884 61.5146 187.052 61.0243 187.053Z" fill="#F0F0F0"/>
<path d="M64.9801 181.356H38.4466C38.1392 181.355 37.8429 181.242 37.6138 181.037C37.3847 180.833 37.2389 180.551 37.2039 180.247L36.6339 175.438C36.6148 175.264 36.6326 175.087 36.6862 174.92C36.7399 174.753 36.8281 174.599 36.9453 174.468C37.0625 174.337 37.206 174.232 37.3664 174.16C37.5269 174.088 37.7007 174.05 37.8766 174.05H65.4874C65.6635 174.049 65.8378 174.086 65.9986 174.158C66.1595 174.23 66.3033 174.335 66.4207 174.466C66.5381 174.597 66.6263 174.751 66.6796 174.919C66.7329 175.087 66.7501 175.264 66.7299 175.438L66.16 180.247C66.1266 180.541 65.9898 180.814 65.7737 181.017C65.5577 181.221 65.2765 181.341 64.9801 181.356Z" fill="#F0F0F0"/>
<path d="M231.209 182.904H236.903V121.739H231.209V182.904Z" fill="#F0F0F0"/>
<path d="M115.174 186.979L234.72 186.979V182.904H115.174V186.979Z" fill="#F0F0F0"/>
<path d="M231.215 121.738H112.991V182.904H231.215V121.738Z" fill="#F5F5F5"/>
<path d="M232.554 121.738H238.437V117.88H232.554V121.738Z" fill="#E0E0E0"/>
<path d="M232.555 117.881H111.458V121.739H232.555V117.881Z" fill="#EBEBEB"/>
<path d="M222.727 148.13H121.473C120.263 148.13 119.103 147.65 118.248 146.797C117.393 145.943 116.913 144.785 116.913 143.578V130.49C116.913 129.282 117.393 128.125 118.248 127.271C119.103 126.417 120.263 125.938 121.473 125.938H222.727C223.937 125.938 225.097 126.417 225.952 127.271C226.807 128.125 227.287 129.282 227.287 130.49V143.578C227.287 144.785 226.807 145.943 225.952 146.797C225.097 147.65 223.937 148.13 222.727 148.13ZM121.473 127.076C120.566 127.076 119.696 127.435 119.054 128.076C118.413 128.716 118.053 129.584 118.053 130.49V143.578C118.053 144.483 118.413 145.352 119.054 145.992C119.696 146.632 120.566 146.992 121.473 146.992H222.727C223.634 146.992 224.504 146.632 225.146 145.992C225.787 145.352 226.147 144.483 226.147 143.578V130.49C226.147 129.584 225.787 128.716 225.146 128.076C224.504 127.435 223.634 127.076 222.727 127.076H121.473Z" fill="white"/>
<path d="M222.727 175.552H121.473C120.263 175.552 119.103 175.072 118.248 174.218C117.393 173.365 116.913 172.207 116.913 170.999V157.912C116.913 156.704 117.393 155.546 118.248 154.693C119.103 153.839 120.263 153.359 121.473 153.359H222.727C223.937 153.359 225.097 153.839 225.952 154.693C226.807 155.546 227.287 156.704 227.287 157.912V170.999C227.287 172.207 226.807 173.365 225.952 174.218C225.097 175.072 223.937 175.552 222.727 175.552ZM121.473 154.452C120.566 154.452 119.696 154.812 119.054 155.452C118.413 156.092 118.053 156.961 118.053 157.866V170.954C118.053 171.859 118.413 172.728 119.054 173.368C119.696 174.008 120.566 174.368 121.473 174.368H222.727C223.634 174.368 224.504 174.008 225.146 173.368C225.787 172.728 226.147 171.859 226.147 170.954V157.866C226.147 156.961 225.787 156.092 225.146 155.452C224.504 154.812 223.634 154.452 222.727 154.452H121.473Z" fill="white"/>
<path d="M199.717 139.026H144.484C144.092 139.026 143.716 138.871 143.438 138.595C143.16 138.318 143.003 137.943 143.002 137.552V136.471C143.003 136.079 143.16 135.705 143.438 135.428C143.716 135.152 144.092 134.997 144.484 134.997H199.717C200.109 134.997 200.485 135.152 200.763 135.428C201.04 135.705 201.197 136.079 201.199 136.471V137.552C201.197 137.943 201.04 138.318 200.763 138.595C200.485 138.871 200.109 139.026 199.717 139.026ZM144.484 136.181C144.394 136.182 144.309 136.218 144.245 136.28C144.182 136.343 144.145 136.427 144.142 136.516V137.598C144.145 137.687 144.182 137.771 144.245 137.834C144.309 137.896 144.394 137.932 144.484 137.933H199.717C199.806 137.933 199.893 137.898 199.957 137.835C200.021 137.772 200.057 137.687 200.059 137.598V136.516C200.057 136.427 200.021 136.341 199.957 136.279C199.893 136.216 199.806 136.181 199.717 136.181H144.484Z" fill="white"/>
<path d="M199.717 166.448H144.484C144.092 166.448 143.716 166.293 143.438 166.016C143.16 165.74 143.003 165.365 143.002 164.974V163.893C143.003 163.501 143.16 163.127 143.438 162.85C143.716 162.574 144.092 162.419 144.484 162.419H199.717C200.109 162.419 200.485 162.574 200.763 162.85C201.04 163.127 201.197 163.501 201.199 163.893V164.974C201.197 165.365 201.04 165.74 200.763 166.016C200.485 166.293 200.109 166.448 199.717 166.448ZM144.484 163.557C144.394 163.558 144.309 163.594 144.245 163.657C144.182 163.719 144.145 163.804 144.142 163.893V164.974C144.145 165.063 144.182 165.148 144.245 165.21C144.309 165.273 144.394 165.308 144.484 165.31H199.717C199.806 165.31 199.893 165.274 199.957 165.212C200.021 165.149 200.057 165.063 200.059 164.974V163.893C200.057 163.803 200.021 163.718 199.957 163.655C199.893 163.592 199.806 163.557 199.717 163.557H144.484Z" fill="white"/>
<path d="M139.65 212.75C200.687 212.75 250.167 209.866 250.167 206.309C250.167 202.751 200.687 199.867 139.65 199.867C78.6129 199.867 29.1326 202.751 29.1326 206.309C29.1326 209.866 78.6129 212.75 139.65 212.75Z" fill="#F5F5F5"/>
<path d="M213.63 64.9095L213.413 68.2598L213.982 68.2965L214.199 64.9462L213.63 64.9095Z" fill="#35B350"/>
<path d="M214.495 51.3027L213.784 62.3135L214.353 62.3501L215.064 51.3394L214.495 51.3027Z" fill="#35B350"/>
<path d="M207.731 35.3128H140.727C139.007 35.343 137.359 36.012 136.106 37.1893C134.853 38.3666 134.084 39.9678 133.95 41.6803L125.292 175.119C125.228 175.937 125.336 176.759 125.608 177.533C125.88 178.308 126.31 179.017 126.871 179.616C127.433 180.215 128.112 180.692 128.868 181.015C129.623 181.338 130.438 181.5 131.259 181.492H198.252C199.975 181.464 201.626 180.795 202.882 179.617C204.139 178.438 204.91 176.835 205.046 175.119L213.699 41.6803C213.762 40.8627 213.654 40.0408 213.382 39.2669C213.11 38.4931 212.68 37.7842 212.118 37.1854C211.557 36.5865 210.877 36.1108 210.122 35.7884C209.366 35.466 208.552 35.3041 207.731 35.3128Z" fill="#35B350"/>
<path opacity="0.7" d="M205.605 35.3128H140.727C139.007 35.343 137.359 36.012 136.106 37.1893C134.853 38.3666 134.084 39.9678 133.95 41.6803L125.292 175.119C125.228 175.937 125.336 176.759 125.608 177.533C125.88 178.308 126.31 179.017 126.871 179.616C127.433 180.215 128.112 180.692 128.868 181.015C129.623 181.338 130.438 181.5 131.259 181.492H196.125C197.849 181.464 199.5 180.795 200.756 179.617C202.013 178.438 202.784 176.835 202.92 175.119L211.572 41.6803C211.636 40.8627 211.528 40.0408 211.256 39.2669C210.984 38.4931 210.553 37.7842 209.992 37.1854C209.431 36.5865 208.751 36.1108 207.996 35.7884C207.24 35.466 206.426 35.3041 205.605 35.3128Z" fill="white"/>
<path d="M200.133 171.631H128.769C128.502 171.631 128.238 171.577 127.992 171.472C127.747 171.366 127.527 171.212 127.344 171.017C127.161 170.823 127.02 170.594 126.93 170.343C126.84 170.092 126.802 169.825 126.819 169.56L134.651 48.8102C134.683 48.317 134.901 47.8544 135.262 47.5163C135.623 47.1781 136.1 46.9897 136.595 46.9893H207.964C208.232 46.9895 208.496 47.0444 208.741 47.1505C208.986 47.2567 209.207 47.4119 209.389 47.6065C209.572 47.8012 209.713 48.0311 209.803 48.2822C209.893 48.5332 209.931 48.8001 209.914 49.0662L202.082 169.81C202.05 170.304 201.831 170.768 201.469 171.106C201.106 171.444 200.629 171.632 200.133 171.631Z" fill="white"/>
<path d="M184.275 43.0403H158.334C158.201 43.0415 158.069 43.015 157.946 42.9624C157.823 42.9099 157.713 42.8325 157.622 42.7351C157.531 42.6377 157.461 42.5225 157.417 42.3968C157.373 42.271 157.355 42.1375 157.365 42.0047C157.392 41.7287 157.518 41.4718 157.72 41.2821C157.923 41.0925 158.188 40.9832 158.466 40.9747H184.406C184.539 40.9727 184.672 40.9985 184.794 41.0504C184.917 41.1023 185.027 41.1792 185.118 41.2761C185.21 41.373 185.28 41.4879 185.324 41.6134C185.368 41.7388 185.386 41.8721 185.375 42.0047C185.35 42.2817 185.225 42.54 185.022 42.7308C184.819 42.9216 184.554 43.0317 184.275 43.0403Z" fill="white"/>
<path d="M164.029 176.701C163.987 177.383 163.688 178.024 163.192 178.495C162.696 178.966 162.04 179.232 161.356 179.239C161.027 179.242 160.701 179.178 160.399 179.049C160.096 178.921 159.823 178.732 159.597 178.494C159.371 178.256 159.196 177.974 159.084 177.665C158.972 177.357 158.924 177.029 158.945 176.701C158.988 176.02 159.287 175.381 159.783 174.911C160.279 174.441 160.934 174.176 161.618 174.169C161.946 174.165 162.272 174.229 162.574 174.357C162.877 174.484 163.15 174.673 163.376 174.911C163.603 175.148 163.777 175.43 163.89 175.738C164.002 176.046 164.049 176.374 164.029 176.701Z" fill="white"/>
<path opacity="0.2" d="M192.358 80.415H131.419L127.543 140.107H192.358C194.049 140.104 195.67 139.432 196.867 138.239C198.063 137.046 198.737 135.428 198.742 133.739V86.8053C198.743 85.113 198.072 83.4893 196.875 82.2911C195.678 81.0928 194.053 80.4181 192.358 80.415Z" fill="#35B350"/>
<path d="M186.681 75.1289H111.999C108.473 75.1289 105.615 77.9823 105.615 81.5021V128.453C105.615 131.973 108.473 134.826 111.999 134.826H186.681C190.206 134.826 193.065 131.973 193.065 128.453V81.5021C193.065 77.9823 190.206 75.1289 186.681 75.1289Z" fill="#35B350"/>
<path d="M103.574 74.4394C103.425 74.4388 103.281 74.3795 103.175 74.2744L102.15 73.2563C102.042 73.1491 101.982 73.0039 101.982 72.8524C101.982 72.7009 102.042 72.5556 102.15 72.4485C102.257 72.3414 102.403 72.2812 102.554 72.2812C102.706 72.2812 102.852 72.3414 102.959 72.4485L103.979 73.4724C104.085 73.579 104.144 73.7232 104.144 73.8734C104.144 74.0237 104.085 74.1679 103.979 74.2744C103.925 74.3272 103.862 74.3689 103.793 74.3972C103.724 74.4255 103.649 74.4398 103.574 74.4394Z" fill="#35B350"/>
<path d="M102.029 78.0136H100.588C100.436 78.0136 100.292 77.9537 100.185 77.847C100.078 77.7403 100.018 77.5957 100.018 77.4448C100.018 77.2939 100.078 77.1493 100.185 77.0426C100.292 76.9359 100.436 76.876 100.588 76.876H102.029C102.18 76.876 102.325 76.9359 102.432 77.0426C102.539 77.1493 102.599 77.2939 102.599 77.4448C102.599 77.5957 102.539 77.7403 102.432 77.847C102.325 77.9537 102.18 78.0136 102.029 78.0136Z" fill="#35B350"/>
<path d="M107.205 72.903C107.061 72.9034 106.922 72.849 106.816 72.7507C106.71 72.6525 106.646 72.5179 106.636 72.374L106.533 70.9349C106.528 70.8602 106.537 70.7851 106.561 70.714C106.584 70.6429 106.622 70.5772 106.671 70.5207C106.72 70.4641 106.78 70.4178 106.848 70.3845C106.915 70.3511 106.988 70.3314 107.063 70.3263C107.213 70.3169 107.361 70.3673 107.474 70.4664C107.587 70.5656 107.657 70.7054 107.667 70.8553L107.775 72.2944C107.781 72.3691 107.771 72.4442 107.747 72.5153C107.724 72.5864 107.686 72.6521 107.637 72.7087C107.588 72.7652 107.528 72.8115 107.46 72.8449C107.393 72.8782 107.32 72.898 107.245 72.903H107.205Z" fill="#35B350"/>
<path d="M155.719 128.687L178.65 151.573V128.687H155.719Z" fill="#35B350"/>
<path d="M152.5 105C152.5 105.692 152.295 106.369 151.91 106.944C151.526 107.52 150.979 107.969 150.339 108.234C149.7 108.498 148.996 108.568 148.317 108.433C147.638 108.298 147.015 107.964 146.525 107.475C146.036 106.985 145.702 106.362 145.567 105.683C145.432 105.004 145.502 104.3 145.766 103.661C146.031 103.021 146.48 102.474 147.056 102.09C147.631 101.705 148.308 101.5 149 101.5C149.928 101.5 150.818 101.869 151.475 102.525C152.131 103.182 152.5 104.072 152.5 105ZM139 101.5C138.308 101.5 137.631 101.705 137.056 102.09C136.48 102.474 136.031 103.021 135.766 103.661C135.502 104.3 135.432 105.004 135.567 105.683C135.702 106.362 136.036 106.985 136.525 107.475C137.015 107.964 137.638 108.298 138.317 108.433C138.996 108.568 139.7 108.498 140.339 108.234C140.979 107.969 141.526 107.52 141.91 106.944C142.295 106.369 142.5 105.692 142.5 105C142.5 104.072 142.131 103.182 141.475 102.525C140.818 101.869 139.928 101.5 139 101.5ZM159 101.5C158.308 101.5 157.631 101.705 157.056 102.09C156.48 102.474 156.031 103.021 155.766 103.661C155.502 104.3 155.432 105.004 155.567 105.683C155.702 106.362 156.036 106.985 156.525 107.475C157.015 107.964 157.638 108.298 158.317 108.433C158.996 108.568 159.7 108.498 160.339 108.234C160.979 107.969 161.526 107.52 161.91 106.944C162.295 106.369 162.5 105.692 162.5 105C162.5 104.54 162.409 104.085 162.234 103.661C162.058 103.236 161.8 102.85 161.475 102.525C161.15 102.2 160.764 101.942 160.339 101.766C159.915 101.591 159.46 101.5 159 101.5Z" fill="white"/>
<path d="M115.915 41.0665H111.561C111.448 41.0694 111.339 41.1121 111.255 41.1871C111.17 41.2621 111.115 41.3645 111.099 41.4762L110.187 50.1483C110.18 50.2006 110.185 50.2536 110.201 50.3039C110.217 50.3541 110.243 50.4005 110.278 50.4398C110.313 50.4791 110.356 50.5105 110.404 50.5319C110.452 50.5533 110.505 50.5641 110.557 50.5637H114.912C115.026 50.5606 115.135 50.5171 115.22 50.441C115.304 50.3648 115.359 50.2611 115.374 50.1483L116.286 41.4762C116.292 41.4242 116.288 41.3714 116.272 41.3214C116.256 41.2715 116.23 41.2254 116.195 41.1866C116.16 41.1477 116.116 41.1168 116.068 41.0961C116.02 41.0754 115.968 41.0653 115.915 41.0665Z" fill="#35B350"/>
<path opacity="0.4" d="M115.522 41.0665H111.561C111.448 41.0694 111.339 41.1121 111.255 41.1871C111.17 41.2621 111.115 41.3645 111.099 41.4762L110.187 50.1483C110.18 50.2006 110.185 50.2536 110.201 50.3039C110.217 50.3541 110.243 50.4005 110.278 50.4398C110.313 50.4791 110.356 50.5105 110.404 50.5319C110.452 50.5533 110.505 50.5641 110.557 50.5637H114.547C114.661 50.5604 114.769 50.5167 114.853 50.4405C114.936 50.3642 114.99 50.2606 115.003 50.1483L115.915 41.4762C115.924 41.422 115.919 41.3667 115.903 41.3144C115.886 41.2622 115.858 41.2145 115.82 41.1749C115.782 41.1353 115.735 41.105 115.683 41.0862C115.632 41.0674 115.577 41.0607 115.522 41.0665Z" fill="white"/>
<path d="M94.09 201.42C94.66 201.42 95.23 201.335 95.4295 201.073C95.478 201.003 95.504 200.919 95.504 200.834C95.504 200.749 95.478 200.665 95.4295 200.595C95.3464 200.467 95.2181 200.376 95.0704 200.339C94.2952 200.128 92.722 201.05 92.6536 201.09C92.6358 201.101 92.6219 201.118 92.6138 201.137C92.6056 201.156 92.6036 201.178 92.608 201.198C92.6122 201.221 92.6232 201.241 92.6395 201.258C92.6557 201.274 92.6766 201.285 92.6992 201.289C93.1583 201.372 93.6235 201.415 94.09 201.42ZM94.7854 200.527C94.8554 200.518 94.9263 200.518 94.9963 200.527C95.0869 200.549 95.1661 200.603 95.2186 200.68C95.2984 200.817 95.2756 200.885 95.2186 200.919C95.0191 201.221 93.8506 201.227 92.9899 201.107C93.5427 200.794 94.1536 200.596 94.7854 200.527Z" fill="#35B350"/>
<path d="M92.6878 201.288H92.7333C93.3031 201.038 94.3401 200.042 94.2319 199.519C94.2319 199.4 94.1122 199.246 93.8102 199.218C93.7034 199.206 93.5952 199.216 93.4923 199.247C93.3895 199.279 93.2941 199.33 93.212 199.4C92.6422 199.883 92.5795 201.106 92.5738 201.174C92.5731 201.194 92.5774 201.214 92.5864 201.232C92.5953 201.25 92.6086 201.265 92.6251 201.277C92.6445 201.286 92.6662 201.29 92.6878 201.288ZM93.7362 199.422H93.7988C93.9983 199.422 94.0153 199.519 94.0153 199.542C94.0837 199.855 93.3658 200.64 92.8131 200.981C92.848 200.459 93.0474 199.961 93.3829 199.559C93.4816 199.475 93.6063 199.426 93.7362 199.422Z" fill="#35B350"/>
<path d="M92.2203 190.512H87.6033V201.181H92.2203V190.512Z" fill="#FF8B7B"/>
<path d="M54.1216 196.094L58.7329 196.595L61.7368 186.238L57.1255 185.737L54.1216 196.094Z" fill="#FF8B7B"/>
<path d="M60.876 197.636C61.446 197.784 62.016 197.847 62.2725 197.636C62.3352 197.578 62.3778 197.501 62.3941 197.418C62.4105 197.334 62.3999 197.247 62.3637 197.17C62.3403 197.099 62.303 197.033 62.2541 196.976C62.2052 196.92 62.1456 196.873 62.0787 196.839C61.3662 196.447 59.5992 196.942 59.5251 196.959C59.5034 196.965 59.484 196.977 59.4697 196.995C59.4554 197.012 59.4469 197.033 59.4453 197.056C59.4453 197.078 59.4517 197.101 59.4638 197.12C59.4759 197.139 59.4932 197.154 59.5137 197.164C59.9535 197.36 60.4093 197.518 60.876 197.636ZM61.7766 196.953C61.8458 196.97 61.9128 196.995 61.9761 197.027C62.0606 197.067 62.126 197.139 62.1585 197.226C62.2041 197.38 62.1585 197.437 62.1585 197.471C61.8849 197.704 60.7392 197.426 59.9241 197.096C60.5268 196.93 61.1561 196.884 61.7766 196.959V196.953Z" fill="#35B350"/>
<path d="M59.5365 197.175H59.5821C60.1519 197.067 61.4624 196.373 61.4851 195.849C61.4851 195.724 61.4396 195.554 61.149 195.451C61.0466 195.415 60.9379 195.399 60.8293 195.405C60.7207 195.41 60.6143 195.438 60.5165 195.485C59.8442 195.81 59.4681 196.981 59.451 197.027C59.4415 197.043 59.4365 197.062 59.4365 197.081C59.4365 197.1 59.4415 197.119 59.451 197.135C59.4607 197.148 59.4736 197.159 59.4886 197.166C59.5035 197.173 59.52 197.176 59.5365 197.175ZM61.0179 195.645H61.0863C61.2743 195.713 61.2686 195.793 61.2686 195.815C61.2686 196.134 60.357 196.708 59.7302 196.896C59.888 196.404 60.1995 195.976 60.6191 195.673C60.7442 195.616 60.8859 195.606 61.0179 195.645Z" fill="#35B350"/>
<path d="M58.978 196.168L53.9335 194.722C53.8468 194.696 53.7538 194.702 53.6705 194.737C53.5872 194.772 53.5189 194.836 53.4775 194.916L51.6193 198.598C51.5759 198.691 51.5536 198.792 51.554 198.895C51.5543 198.998 51.5774 199.099 51.6214 199.192C51.6655 199.285 51.7295 199.367 51.809 199.433C51.8884 199.498 51.9813 199.545 52.081 199.571C53.848 200.043 54.7315 200.191 56.9488 200.822C58.3111 201.215 61.087 202.16 62.9737 202.7C64.8604 203.241 65.5558 201.471 64.8262 201.084C61.5544 199.349 60.5056 197.949 59.6392 196.651C59.4838 196.416 59.2492 196.245 58.978 196.168Z" fill="#263238"/>
<path d="M92.169 200.647H87.1302C87.0396 200.645 86.9516 200.677 86.8825 200.736C86.8133 200.794 86.7677 200.876 86.754 200.965L86.0187 205.034C86.0022 205.135 86.008 205.239 86.0356 205.338C86.0632 205.437 86.112 205.529 86.1787 205.608C86.2453 205.686 86.3282 205.749 86.4216 205.793C86.5151 205.836 86.6168 205.859 86.7198 205.859C88.5381 205.825 91.1601 205.717 93.4458 205.717C96.1191 205.717 97.5783 205.865 100.713 205.865C102.606 205.865 103.05 203.953 102.247 203.776C98.6043 202.991 96.501 202.906 93.2976 200.982C92.9573 200.774 92.5682 200.658 92.169 200.647Z" fill="#263238"/>
<path opacity="0.2" d="M92.2203 190.512H87.6033V196.014H92.2203V190.512Z" fill="black"/>
<path opacity="0.2" d="M57.1254 185.743L61.7366 186.238L60.0665 191.985L55.575 191.081L57.1254 185.743Z" fill="black"/>
<path d="M84.6278 84.3984C84.6278 84.3984 82.0799 119.189 79.7999 132.38C77.2862 146.827 62.66 191.064 62.66 191.064L54.281 189.534C54.281 189.534 64.8431 147.994 66.0116 133.688C67.2827 118.165 68.8103 86.1681 68.8103 86.1681L84.6278 84.3984Z" fill="#35B350"/>
<path opacity="0.3" d="M80.336 98.8512C80.792 96.9392 81.8408 99.3463 83.0606 103.517C82.1372 113.84 80.9345 125.795 79.7831 132.384C79.5266 133.858 79.139 135.645 78.6431 137.671C79.082 122.944 79.0991 104.024 80.336 98.8512Z" fill="black"/>
<path d="M93.3318 83.4531C93.3318 83.4531 96.6777 118.426 96.7917 132.476C96.9114 147.094 93.8961 194.95 93.8961 194.95H86.07C86.07 194.95 83.7216 147.948 82.7469 133.591C81.681 117.942 77.1951 85.2228 77.1951 85.2228L93.3318 83.4531Z" fill="#35B350"/>
<path d="M64.41 188.247C64.4442 188.247 63.0933 191.28 63.0933 191.28L53.6655 189.573L54.2355 186.756L64.41 188.247Z" fill="#263238"/>
<path d="M95.2642 191.838C95.2984 191.838 94.9621 195.081 94.9621 195.081H85.4545L85.0669 192.191L95.2642 191.838Z" fill="#263238"/>
<path d="M69.0385 52.2816C68.4115 53.4937 67.7218 54.7683 67.0948 56.0259L65.1796 59.8157C64.5583 61.0789 63.9484 62.3479 63.3613 63.6168C62.7742 64.8858 62.2213 66.149 61.7482 67.4123L61.7026 65.4207C62.0358 66.4434 62.4357 67.4432 62.8996 68.4138C63.1219 68.9146 63.4069 69.3925 63.652 69.8876C63.8971 70.3827 64.222 70.855 64.5127 71.3216C65.1175 72.2861 65.772 73.2187 66.4735 74.1155C66.8269 74.5651 67.1803 75.026 67.5565 75.4585C67.9327 75.8909 68.3431 76.3405 68.6965 76.7103L68.8105 76.8355C69.0731 77.1234 69.2245 77.4952 69.2375 77.8843C69.2505 78.2735 69.1243 78.6545 68.8815 78.9592C68.6387 79.2639 68.2951 79.4723 67.9124 79.5472C67.5297 79.6221 67.1327 79.5584 66.7927 79.3677C66.2035 79.0365 65.6327 78.6736 65.0827 78.2809C64.5127 77.9053 64.0111 77.5127 63.4981 77.0973C62.4712 76.2563 61.5072 75.3416 60.6139 74.3602C59.702 73.363 58.8728 72.2935 58.1344 71.1622C57.3757 70.0097 56.716 68.7953 56.1622 67.5318C55.9183 66.9956 55.8758 66.3896 56.0425 65.8247L56.1223 65.5572C56.5555 64.0721 57.04 62.6324 57.5758 61.2212C58.1116 59.81 58.6816 58.4272 59.2858 57.0672C59.89 55.7072 60.5227 54.3643 61.1896 53.0384C61.8565 51.7126 62.5291 50.4152 63.2986 49.0893C63.7239 48.3305 64.4319 47.7699 65.2688 47.5293C66.1058 47.2887 67.004 47.3875 67.7684 47.8043C68.5328 48.221 69.1016 48.9221 69.3511 49.7551C69.6007 50.5882 69.5109 51.4859 69.1012 52.2532L69.0385 52.2816Z" fill="#FF8B7B"/>
<path d="M72.3103 50.2562C72.5383 54.5979 67.6021 62.5701 67.6021 62.5701L57.439 57.5C58.674 53.9038 60.5855 50.5761 63.0706 47.6955C68.4457 41.7662 72.0994 46.2729 72.3103 50.2562Z" fill="#263238"/>
<path d="M65.4248 78.5544L67.4711 81.9686L71.729 79.2486C70.9853 77.9181 69.8206 76.8714 68.4173 76.2725C68.0928 76.1691 67.7419 76.1851 67.4282 76.3176C67.1145 76.4502 66.8588 76.6906 66.7073 76.9952L65.4248 78.5544Z" fill="#FF8B7B"/>
<path d="M69.1752 83.4246L71.1531 83.0548C71.3196 83.024 71.4784 82.9607 71.6203 82.8684C71.7621 82.7761 71.8843 82.6567 71.9796 82.517C72.075 82.3774 72.1418 82.2202 72.176 82.0547C72.2102 81.8891 72.2113 81.7185 72.1791 81.5525L71.7288 79.2764L67.4709 81.9964L67.7559 82.6849C67.8725 82.9513 68.0769 83.1699 68.335 83.3044C68.5932 83.439 68.8896 83.4814 69.1752 83.4246Z" fill="#FF8B7B"/>
<path d="M81.1853 28.4393C81.2252 28.809 81.4588 29.0991 81.6981 29.0763C81.9374 29.0536 82.0969 28.7407 82.0513 28.371C82.0058 28.0013 81.7778 27.7112 81.5385 27.7283C81.2992 27.7453 81.1397 28.0639 81.1853 28.4393Z" fill="#263238"/>
<path d="M81.4246 29.0996C82.0011 30.2048 82.7196 31.2302 83.5621 32.1496C82.9921 32.8154 81.8521 32.6219 81.8521 32.6219L81.4246 29.0996Z" fill="#FF5652"/>
<path d="M79.589 26.4753C79.6186 26.4797 79.6489 26.4774 79.6775 26.4685C79.7061 26.4597 79.7323 26.4445 79.7542 26.4241C79.9518 26.2394 80.1918 26.106 80.453 26.0356C80.7143 25.9652 80.989 25.9599 81.2528 26.0202C81.2797 26.0288 81.3081 26.0318 81.3362 26.0289C81.3644 26.026 81.3916 26.0174 81.4162 26.0035C81.4408 25.9896 81.4623 25.9708 81.4792 25.9482C81.4962 25.9256 81.5083 25.8998 81.5149 25.8724C81.5291 25.8158 81.5211 25.756 81.4925 25.7052C81.4639 25.6544 81.4168 25.6165 81.361 25.5993C81.0279 25.52 80.6804 25.523 80.3487 25.6083C80.017 25.6935 79.7113 25.8584 79.458 26.0885C79.4368 26.1087 79.4199 26.133 79.4083 26.1598C79.3968 26.1867 79.3909 26.2157 79.3909 26.2449C79.3909 26.2742 79.3968 26.3031 79.4083 26.33C79.4199 26.3569 79.4368 26.3812 79.458 26.4014C79.4737 26.4218 79.4935 26.4389 79.516 26.4516C79.5385 26.4643 79.5633 26.4723 79.589 26.4753Z" fill="#263238"/>
<path d="M69.6938 32.5586C70.7825 35.8533 72.2303 41.9249 70.1669 44.3604C70.1669 44.3604 71.5236 47.6779 77.7708 47.1487C84.6507 46.5796 80.6208 43.4784 80.6208 43.4784C76.7562 42.9094 76.4939 40.1268 76.8131 37.4694L69.6938 32.5586Z" fill="#FF8B7B"/>
<path d="M68.6908 45.5616C68.0467 44.5316 67.3285 43.3537 68.5483 42.9156C69.8878 42.4319 77.4118 41.6466 80.0908 42.3067C82.7698 42.9668 82.2226 45.1519 82.2226 45.1519L68.6908 45.5616Z" fill="#35B350"/>
<path d="M90.7212 46.9494C91.7016 47.8485 92.7618 48.8443 93.8163 49.7547C94.8708 50.6652 95.9367 51.5984 97.0083 52.4975C98.0799 53.3966 99.1743 54.2444 100.274 55.0695C101.374 55.8946 102.492 56.6458 103.609 57.3457L101.329 57.1295C102.276 56.8771 103.173 56.4632 103.979 55.906C104.922 55.2486 105.796 54.4995 106.59 53.6697C107.446 52.7956 108.247 51.8701 108.99 50.8985C109.372 50.4034 109.753 49.9027 110.13 49.3849C110.506 48.8671 110.848 48.3208 111.161 47.8428L111.224 47.7517C111.441 47.4217 111.769 47.1803 112.149 47.0716C112.529 46.963 112.935 46.9943 113.294 47.1599C113.652 47.3255 113.94 47.6143 114.103 47.9737C114.266 48.333 114.294 48.739 114.182 49.1174C113.966 49.8572 113.738 50.4888 113.476 51.1489C113.213 51.809 112.94 52.4577 112.632 53.095C112.008 54.395 111.278 55.6416 110.449 56.8222C109.579 58.0741 108.565 59.2199 107.428 60.2364C106.169 61.3579 104.709 62.2307 103.124 62.8084C102.784 62.9281 102.424 62.9792 102.064 62.9586C101.704 62.9381 101.351 62.8465 101.027 62.6889L100.839 62.5922C99.4234 61.8978 98.0493 61.1226 96.7233 60.2705C95.4294 59.434 94.1754 58.5634 92.967 57.6302C91.7586 56.697 90.5901 55.7524 89.4501 54.785C88.3101 53.8177 87.2157 52.8048 86.1042 51.6724C85.5127 51.0565 85.1831 50.2359 85.1846 49.3828C85.186 48.5296 85.5184 47.7101 86.1119 47.0962C86.7054 46.4823 87.514 46.1218 88.3681 46.0902C89.2221 46.0585 90.0552 46.3583 90.6927 46.9266L90.7212 46.9494Z" fill="#FF8B7B"/>
<path d="M87.2385 43.997C87.2385 43.997 92.9841 49.5621 93.651 83.9831C84.4626 86.2081 75.6219 87.0275 68.7933 86.1625C68.4684 81.8436 67.9839 66.8551 63.5949 51.053C63.4064 50.3874 63.3585 49.69 63.4543 49.005C63.5501 48.32 63.7875 47.6623 64.1514 47.0738C64.5153 46.4852 64.9978 45.9786 65.5683 45.5861C66.1387 45.1935 66.7847 44.9237 67.4652 44.7936C68.3373 44.6229 69.255 44.4693 70.167 44.3498C73.6317 43.855 77.1221 43.5605 80.6208 43.4678C82.8365 43.4858 85.0481 43.6627 87.2385 43.997Z" fill="#263238"/>
<path d="M82.781 49.9945C83.351 54.3021 90.761 62.5816 90.761 62.5816L99.5561 53.477C96.9435 50.7388 94.1189 48.2101 91.1087 45.9145C84.662 41.1062 82.268 45.9999 82.781 49.9945Z" fill="#263238"/>
<path d="M113.612 50.6311L116.553 47.9395L113.031 44.3262C111.866 45.3167 111.064 46.6659 110.751 48.1615C110.716 48.5034 110.807 48.8462 111.006 49.1265C111.205 49.4068 111.499 49.6057 111.834 49.6865L113.612 50.6311Z" fill="#FF8B7B"/>
<path d="M117.637 45.9822L116.879 44.1214C116.814 43.9618 116.719 43.8166 116.597 43.6945C116.476 43.5724 116.331 43.4759 116.172 43.4106C116.012 43.3453 115.841 43.3127 115.669 43.3145C115.497 43.3164 115.327 43.3528 115.169 43.4215L113.008 44.3263L116.531 47.9396L117.147 47.5242C117.394 47.3628 117.577 47.1212 117.667 46.8403C117.756 46.5593 117.745 46.2562 117.637 45.9822Z" fill="#FF8B7B"/>
<path d="M68.8162 28.6323C69.6427 33.1845 69.8935 35.8818 72.4585 38.0498C76.3174 41.3104 81.6411 38.7725 82.1484 34.1235C82.6272 29.9353 81.1965 23.1923 76.5567 21.7242C71.9169 20.256 67.9897 24.08 68.8162 28.6323Z" fill="#FF8B7B"/>
<path d="M77.8051 30.2714C79.4068 30.6356 80.6551 28.7862 80.8261 28.2627C80.0452 28.3367 78.6601 27.9384 78.3865 27.5856C79.2415 27.6595 80.068 26.6068 80.1706 26.2028C79.2635 26.0279 78.4601 25.5075 77.9305 24.7518C79.3156 24.7233 80.98 22.2878 79.4581 20.1084C77.9362 17.929 71.575 19.7556 70.6801 18.2021C69.3463 18.976 70.5319 20.006 70.5319 20.006C70.5319 20.006 61.5316 21.7131 65.6812 25.1785C62.6374 25.4517 62.2099 29.0423 64.7464 30.8689C67.2829 32.6955 67.414 33.9018 66.4051 33.7539C66.8098 34.5278 68.6167 34.6302 68.7193 33.8791C69.1468 35.4553 70.378 37.5892 73.2166 37.2421C76.0552 36.895 78.8368 32.9288 77.8051 30.2714Z" fill="#263238"/>
<path d="M66.4678 24.6494C64.3246 24.9453 63.3499 23.7389 63.8857 22.6748C61.2295 24.0291 64.1308 27.0222 66.4678 24.6494Z" fill="#263238"/>
<path d="M75.5879 29.5768C75.9567 30.5305 76.6092 31.3486 77.4575 31.9212C78.5975 32.6723 79.6292 31.9212 79.4354 30.7831C79.2587 29.7361 78.455 28.0802 77.2694 27.7843C77.0238 27.7039 76.7604 27.6951 76.51 27.7591C76.2597 27.823 76.0328 27.9571 75.8562 28.1454C75.6795 28.3337 75.5604 28.5684 75.5129 28.822C75.4654 29.0756 75.4914 29.3375 75.5879 29.5768Z" fill="#FF8B7B"/>
<path d="M220.465 189.966C216.247 180.03 214.542 168.342 219.37 168.826C224.324 169.304 223.742 186.921 224.546 188.856C223.001 190.182 220.465 189.966 220.465 189.966Z" fill="#35B350"/>
<path d="M221.833 171.113C220.795 174.903 219.695 180.758 218.857 185.72C219.336 187.143 219.877 188.566 220.465 189.965C220.465 189.965 222.995 190.182 224.551 188.856C223.913 187.331 224.141 176.041 221.833 171.113Z" fill="#263238"/>
<path d="M221.855 188.144C220.533 167.033 224.135 147.464 233.62 148.346C241.76 149.109 229.892 184.651 230.12 188.748C226.393 190.193 221.855 188.144 221.855 188.144Z" fill="#35B350"/>
<path d="M228 188.008C229.488 172.832 237.508 155.123 240.95 161.041C245.322 168.553 234.11 186.443 233.808 189.385C231.004 189.988 228 188.008 228 188.008Z" fill="#35B350"/>
<path d="M226.501 153.985C225.538 153.826 225.002 153.228 225.065 152.381C225.133 151.425 225.92 150.474 226.649 150.463C227.003 150.463 227.595 150.645 227.744 151.959L227.174 152.028C227.105 151.402 226.917 151.032 226.666 151.032C226.279 151.032 225.686 151.738 225.64 152.42C225.6 152.989 225.92 153.308 226.598 153.422L226.501 153.985Z" fill="#35B350"/>
<path d="M236.738 157.803C236.324 157.77 235.928 157.618 235.598 157.365L235.906 156.893C236.436 157.234 236.846 157.325 237.006 157.132C237.245 156.825 237.08 155.926 236.584 155.453C236.185 155.072 235.718 155.101 235.199 155.556L234.829 155.123C234.962 154.973 235.124 154.852 235.306 154.766C235.488 154.68 235.685 154.632 235.886 154.625C236.087 154.618 236.287 154.651 236.475 154.723C236.662 154.795 236.833 154.904 236.978 155.044C237.673 155.704 237.907 156.91 237.451 157.485C237.366 157.591 237.258 157.676 237.134 157.731C237.009 157.787 236.874 157.812 236.738 157.803Z" fill="#35B350"/>
<path d="M222.767 166.396C222.422 166.421 222.08 166.319 221.805 166.109C221.53 165.9 221.341 165.597 221.274 165.258C221.046 164.331 221.502 163.187 222.197 162.948C222.522 162.84 223.149 162.828 223.696 164.04L223.172 164.279C222.915 163.71 222.602 163.403 222.38 163.488C222.015 163.614 221.667 164.462 221.81 165.122C221.941 165.691 222.38 165.884 223.029 165.782L223.115 166.351C223.001 166.376 222.884 166.391 222.767 166.396Z" fill="#35B350"/>
<path d="M216.697 178.18C216.419 178.187 216.146 178.109 215.913 177.958C215.68 177.807 215.498 177.589 215.392 177.333C214.993 176.462 215.226 175.25 215.859 174.886C216.161 174.715 216.777 174.59 217.54 175.682L217.073 176.007C216.708 175.489 216.361 175.256 216.144 175.381C215.808 175.574 215.625 176.473 215.91 177.088C216.144 177.594 216.589 177.731 217.233 177.503L217.421 178.044C217.189 178.131 216.944 178.177 216.697 178.18Z" fill="#35B350"/>
<path d="M226.797 161.001C226.738 161.001 226.681 160.983 226.632 160.95C226.278 160.754 226.007 160.437 225.868 160.058C225.73 159.678 225.734 159.261 225.88 158.884C226.045 158.506 226.327 158.191 226.686 157.986C227.044 157.781 227.459 157.697 227.869 157.746C228.222 157.809 229.049 158.122 229.106 159.635C229.106 159.711 229.076 159.783 229.022 159.836C228.969 159.89 228.897 159.92 228.821 159.92C228.745 159.92 228.673 159.89 228.619 159.836C228.566 159.783 228.536 159.711 228.536 159.635C228.502 158.844 228.234 158.366 227.766 158.281C227.483 158.258 227.199 158.324 226.955 158.47C226.711 158.616 226.518 158.834 226.404 159.095C226.199 159.578 226.404 160.068 226.974 160.472C227.024 160.506 227.061 160.556 227.081 160.614C227.1 160.671 227.101 160.734 227.083 160.791C227.064 160.849 227.028 160.9 226.978 160.935C226.929 160.971 226.87 160.99 226.809 160.99L226.797 161.001Z" fill="white"/>
<path d="M233.552 176.36C233.486 176.361 233.423 176.338 233.373 176.297C233.323 176.255 233.289 176.197 233.278 176.132C233.27 176.096 233.269 176.059 233.275 176.022C233.282 175.985 233.295 175.95 233.316 175.919C233.336 175.888 233.362 175.861 233.393 175.84C233.424 175.819 233.458 175.804 233.495 175.797C234.27 175.637 234.697 175.29 234.709 174.818C234.683 174.535 234.57 174.267 234.385 174.051C234.201 173.835 233.953 173.681 233.677 173.612C233.164 173.486 232.708 173.765 232.406 174.391C232.39 174.425 232.367 174.455 232.339 174.48C232.31 174.504 232.278 174.523 232.242 174.536C232.207 174.548 232.169 174.553 232.132 174.55C232.094 174.548 232.058 174.538 232.024 174.522C231.99 174.506 231.96 174.483 231.936 174.455C231.911 174.427 231.892 174.394 231.879 174.358C231.867 174.323 231.862 174.286 231.865 174.248C231.867 174.211 231.877 174.174 231.893 174.141C232.033 173.763 232.302 173.447 232.652 173.248C233.002 173.05 233.412 172.981 233.808 173.054C234.211 173.153 234.571 173.378 234.835 173.697C235.1 174.016 235.256 174.41 235.279 174.824C235.279 175.182 235.096 176.047 233.614 176.354L233.552 176.36Z" fill="white"/>
<path d="M241.566 171.562C241.235 171.562 240.797 171.369 240.306 170.635L240.78 170.316C241.133 170.84 241.469 171.079 241.691 170.959C242.033 170.777 242.261 169.878 241.959 169.252C241.743 168.746 241.298 168.598 240.648 168.808L240.472 168.268C241.395 167.966 242.148 168.268 242.484 169.03C242.866 169.907 242.609 171.113 241.965 171.46C241.843 171.529 241.706 171.564 241.566 171.562Z" fill="#35B350"/>
<path d="M239.868 193.578C239.871 190.542 238.781 187.605 236.795 185.305C236.99 185.276 237.169 185.179 237.298 185.031C237.428 184.883 237.5 184.693 237.502 184.497C237.501 184.274 237.411 184.062 237.253 183.905C237.095 183.748 236.881 183.66 236.658 183.66H217.575C217.367 183.663 217.168 183.743 217.016 183.885C216.865 184.028 216.772 184.221 216.756 184.428C216.741 184.635 216.803 184.84 216.931 185.003C217.06 185.167 217.244 185.276 217.449 185.31C216.201 186.758 215.296 188.467 214.801 190.312C214.306 192.156 214.235 194.089 214.591 195.965C214.948 197.841 215.724 199.613 216.861 201.149C217.998 202.684 219.468 203.944 221.16 204.834C220.976 204.929 220.829 205.083 220.743 205.271C220.657 205.46 220.637 205.672 220.686 205.873C220.736 206.074 220.851 206.253 221.015 206.38C221.178 206.507 221.38 206.576 221.588 206.575H232.64C232.884 206.574 233.118 206.476 233.291 206.304C233.464 206.131 233.562 205.897 233.563 205.653C233.562 205.485 233.516 205.32 233.429 205.175C233.341 205.031 233.217 204.913 233.067 204.834C235.12 203.754 236.838 202.134 238.036 200.151C239.234 198.167 239.868 195.895 239.868 193.578Z" fill="#263238"/>
</svg>
