<svg width="24" height="24" viewBox="0 0 24 24" fill="none" xmlns="http://www.w3.org/2000/svg">
<g id="Buildings">
<path id="Vector" d="M22.5 19.125H21.375V8.99999C21.375 8.50271 21.1775 8.0258 20.8258 7.67417C20.4742 7.32254 19.9973 7.12499 19.5 7.12499H16.125V2.99999C16.1249 2.6848 16.0453 2.37472 15.8936 2.09842C15.742 1.82212 15.5231 1.58852 15.2573 1.4192C14.9914 1.24987 14.6872 1.1503 14.3726 1.12969C14.0581 1.10907 13.7435 1.16807 13.4578 1.30124L3.70781 5.85187C3.38466 6.00325 3.11125 6.24346 2.91952 6.54442C2.72778 6.84539 2.62563 7.1947 2.625 7.55155V19.125H1.5C1.20163 19.125 0.915483 19.2435 0.704505 19.4545C0.493526 19.6655 0.375 19.9516 0.375 20.25C0.375 20.5484 0.493526 20.8345 0.704505 21.0455C0.915483 21.2565 1.20163 21.375 1.5 21.375H22.5C22.7984 21.375 23.0845 21.2565 23.2955 21.0455C23.5065 20.8345 23.625 20.5484 23.625 20.25C23.625 19.9516 23.5065 19.6655 23.2955 19.4545C23.0845 19.2435 22.7984 19.125 22.5 19.125ZM19.125 9.37499V19.125H16.125V9.37499H19.125ZM4.875 7.78968L13.875 3.59062V19.125H4.875V7.78968ZM12.375 10.5V11.625C12.375 11.9234 12.2565 12.2095 12.0455 12.4205C11.8345 12.6315 11.5484 12.75 11.25 12.75C10.9516 12.75 10.6655 12.6315 10.4545 12.4205C10.2435 12.2095 10.125 11.9234 10.125 11.625V10.5C10.125 10.2016 10.2435 9.91547 10.4545 9.7045C10.6655 9.49352 10.9516 9.37499 11.25 9.37499C11.5484 9.37499 11.8345 9.49352 12.0455 9.7045C12.2565 9.91547 12.375 10.2016 12.375 10.5ZM8.625 10.5V11.625C8.625 11.9234 8.50647 12.2095 8.2955 12.4205C8.08452 12.6315 7.79837 12.75 7.5 12.75C7.20163 12.75 6.91548 12.6315 6.7045 12.4205C6.49353 12.2095 6.375 11.9234 6.375 11.625V10.5C6.375 10.2016 6.49353 9.91547 6.7045 9.7045C6.91548 9.49352 7.20163 9.37499 7.5 9.37499C7.79837 9.37499 8.08452 9.49352 8.2955 9.7045C8.50647 9.91547 8.625 10.2016 8.625 10.5ZM8.625 15.375V16.5C8.625 16.7984 8.50647 17.0845 8.2955 17.2955C8.08452 17.5065 7.79837 17.625 7.5 17.625C7.20163 17.625 6.91548 17.5065 6.7045 17.2955C6.49353 17.0845 6.375 16.7984 6.375 16.5V15.375C6.375 15.0766 6.49353 14.7905 6.7045 14.5795C6.91548 14.3685 7.20163 14.25 7.5 14.25C7.79837 14.25 8.08452 14.3685 8.2955 14.5795C8.50647 14.7905 8.625 15.0766 8.625 15.375ZM12.375 15.375V16.5C12.375 16.7984 12.2565 17.0845 12.0455 17.2955C11.8345 17.5065 11.5484 17.625 11.25 17.625C10.9516 17.625 10.6655 17.5065 10.4545 17.2955C10.2435 17.0845 10.125 16.7984 10.125 16.5V15.375C10.125 15.0766 10.2435 14.7905 10.4545 14.5795C10.6655 14.3685 10.9516 14.25 11.25 14.25C11.5484 14.25 11.8345 14.3685 12.0455 14.5795C12.2565 14.7905 12.375 15.0766 12.375 15.375Z" fill="black"/>
</g>
</svg>
