<svg xmlns="http://www.w3.org/2000/svg" id="Layer_1" data-name="Layer 1" viewBox="0 0 24 24" width="300" height="300" version="1.1" xmlns:xlink="http://www.w3.org/1999/xlink" xmlns:svgjs="http://svgjs.dev/svgjs"><g width="100%" height="100%" transform="matrix(1,0,0,1,0,0)"><path d="M24,22v2H3c-1.65,0-3-1.35-3-3V0H2V21c0,.55,.45,1,1,1H24Zm-7-9h-2V3h2V0h2V3h2V13h-2v3h-2v-3Zm0-2h2V5h-2v6Zm-9,5h-2V3h2V0h2V3h2v13h-2v3h-2v-3Zm0-2h2V5h-2V14Z" fill="#4ca856" fill-opacity="1" data-original-color="#000000ff" stroke="none" stroke-opacity="1"/></g></svg>