<svg width="192" height="50" viewBox="0 0 192 50" fill="none" xmlns="http://www.w3.org/2000/svg">
<g clip-path="url(#clip0_22580_203980)">
<rect y="0.390625" width="49.2179" height="49.2179" rx="24.6089" fill="white"/>
<rect x="-11.0781" y="-7.61328" width="71.3659" height="69.5203" fill="#030712"/>
</g>
<path d="M27.3164 12.8477L20.9718 12.8477L15.6642 12.8477L15.6642 18.7818L21.4903 18.7818L20.1123 22.3591C21.9608 20.7836 25.6581 18.5763 30.2217 18.6931L33.673 18.6931L33.6875 12.8477L32.5772 12.8477L27.3164 12.8477Z" fill="white"/>
<path d="M20.9209 23.5824C24.2713 20.6648 27.4399 20.1523 30.6835 20.1523H33.6874L33.6873 29.2404L27.7503 29.2412V26.0584C23.7008 26.1006 17.2609 28.7762 15.6641 37.1114C15.6641 30.6106 17.7333 26.3582 20.9209 23.5824Z" fill="white"/>
<path d="M15.7107 36.8761C15.6944 36.9836 15.6789 37.092 15.6641 37.2013H21.5563C21.5563 33.0147 22.8815 26.9285 27.7313 26.0586C23.7191 26.1085 17.38 28.7386 15.7107 36.8761Z" fill="#9CA3AF"/>
<path d="M74.2188 16.2426V19.1806H66.6528V23.8346H72.4508V26.7206H66.6528V34.3906H63.0128V16.2426H74.2188ZM79.1659 18.2706C78.5245 18.2706 77.9872 18.0713 77.5539 17.6726C77.1379 17.2566 76.9299 16.7453 76.9299 16.1386C76.9299 15.532 77.1379 15.0293 77.5539 14.6306C77.9872 14.2146 78.5245 14.0066 79.1659 14.0066C79.8072 14.0066 80.3359 14.2146 80.7519 14.6306C81.1852 15.0293 81.4019 15.532 81.4019 16.1386C81.4019 16.7453 81.1852 17.2566 80.7519 17.6726C80.3359 18.0713 79.8072 18.2706 79.1659 18.2706ZM80.9599 19.9866V34.3906H77.3199V19.9866H80.9599ZM88.7162 22.2226C89.1842 21.46 89.7909 20.862 90.5362 20.4286C91.2989 19.9953 92.1655 19.7786 93.1362 19.7786V23.6006H92.1742C91.0302 23.6006 90.1635 23.8693 89.5742 24.4066C89.0022 24.944 88.7162 25.88 88.7162 27.2146V34.3906H85.0762V19.9866H88.7162V22.2226ZM101.62 34.6246C100.441 34.6246 99.3839 34.4166 98.4479 34.0006C97.5119 33.5673 96.7666 32.9866 96.2119 32.2586C95.6746 31.5306 95.3799 30.7246 95.3279 29.8406H98.9939C99.0632 30.3953 99.3319 30.8546 99.7999 31.2186C100.285 31.5826 100.883 31.7646 101.594 31.7646C102.287 31.7646 102.825 31.626 103.206 31.3486C103.605 31.0713 103.804 30.716 103.804 30.2826C103.804 29.8146 103.561 29.468 103.076 29.2426C102.608 29 101.854 28.74 100.814 28.4626C99.7392 28.2026 98.8552 27.934 98.1619 27.6566C97.4859 27.3793 96.8966 26.9546 96.3939 26.3826C95.9086 25.8106 95.6659 25.0393 95.6659 24.0686C95.6659 23.2713 95.8912 22.5433 96.3419 21.8846C96.8099 21.226 97.4686 20.706 98.3179 20.3246C99.1846 19.9433 100.199 19.7526 101.36 19.7526C103.076 19.7526 104.445 20.186 105.468 21.0526C106.491 21.902 107.054 23.0546 107.158 24.5106H103.674C103.622 23.9386 103.379 23.488 102.946 23.1586C102.53 22.812 101.967 22.6386 101.256 22.6386C100.597 22.6386 100.086 22.76 99.7219 23.0026C99.3752 23.2453 99.2019 23.5833 99.2019 24.0166C99.2019 24.502 99.4446 24.8746 99.9299 25.1346C100.415 25.3773 101.169 25.6286 102.192 25.8886C103.232 26.1486 104.09 26.4173 104.766 26.6946C105.442 26.972 106.023 27.4053 106.508 27.9946C107.011 28.5666 107.271 29.3293 107.288 30.2826C107.288 31.1146 107.054 31.86 106.586 32.5186C106.135 33.1773 105.477 33.6973 104.61 34.0786C103.761 34.4426 102.764 34.6246 101.62 34.6246ZM115.034 22.9766V29.9446C115.034 30.43 115.147 30.7853 115.372 31.0106C115.615 31.2186 116.013 31.3226 116.568 31.3226H118.258V34.3906H115.97C112.902 34.3906 111.368 32.9 111.368 29.9186V22.9766H109.652V19.9866H111.368V16.4246H115.034V19.9866H118.258V22.9766H115.034ZM127.792 34.6246C126.405 34.6246 125.157 34.3213 124.048 33.7146C122.939 33.0906 122.063 32.2153 121.422 31.0886C120.798 29.962 120.486 28.662 120.486 27.1886C120.486 25.7153 120.807 24.4153 121.448 23.2886C122.107 22.162 122.999 21.2953 124.126 20.6886C125.253 20.0646 126.509 19.7526 127.896 19.7526C129.283 19.7526 130.539 20.0646 131.666 20.6886C132.793 21.2953 133.677 22.162 134.318 23.2886C134.977 24.4153 135.306 25.7153 135.306 27.1886C135.306 28.662 134.968 29.962 134.292 31.0886C133.633 32.2153 132.732 33.0906 131.588 33.7146C130.461 34.3213 129.196 34.6246 127.792 34.6246ZM127.792 31.4526C128.451 31.4526 129.066 31.2966 129.638 30.9846C130.227 30.6553 130.695 30.17 131.042 29.5286C131.389 28.8873 131.562 28.1073 131.562 27.1886C131.562 25.8193 131.198 24.7706 130.47 24.0426C129.759 23.2973 128.884 22.9246 127.844 22.9246C126.804 22.9246 125.929 23.2973 125.218 24.0426C124.525 24.7706 124.178 25.8193 124.178 27.1886C124.178 28.558 124.516 29.6153 125.192 30.3606C125.885 31.0886 126.752 31.4526 127.792 31.4526ZM137.56 27.1886C137.56 25.698 137.863 24.398 138.47 23.2886C139.077 22.162 139.917 21.2953 140.992 20.6886C142.067 20.0646 143.297 19.7526 144.684 19.7526C146.469 19.7526 147.943 20.2033 149.104 21.1046C150.283 21.9886 151.071 23.2366 151.47 24.8486H147.544C147.336 24.2246 146.981 23.7393 146.478 23.3926C145.993 23.0286 145.386 22.8466 144.658 22.8466C143.618 22.8466 142.795 23.228 142.188 23.9906C141.581 24.736 141.278 25.802 141.278 27.1886C141.278 28.558 141.581 29.624 142.188 30.3866C142.795 31.132 143.618 31.5046 144.658 31.5046C146.131 31.5046 147.093 30.846 147.544 29.5286H151.47C151.071 31.0886 150.283 32.328 149.104 33.2466C147.925 34.1653 146.452 34.6246 144.684 34.6246C143.297 34.6246 142.067 34.3213 140.992 33.7146C139.917 33.0906 139.077 32.224 138.47 31.1146C137.863 29.988 137.56 28.6793 137.56 27.1886ZM163.185 34.3906L158.297 28.2546V34.3906H154.657V15.1506H158.297V26.0966L163.133 19.9866H167.865L161.521 27.2146L167.917 34.3906H163.185Z" fill="#030712"/>
<defs>
<clipPath id="clip0_22580_203980">
<rect y="0.390625" width="49.2179" height="49.2179" rx="24.6089" fill="white"/>
</clipPath>
</defs>
</svg>
