<?xml version="1.0" encoding="UTF-8"?>
<svg version="1.1" xmlns="http://www.w3.org/2000/svg" width="317" height="317">
<path d="M0 0 C104.61 0 209.22 0 317 0 C317 104.61 317 209.22 317 317 C212.39 317 107.78 317 0 317 C0 212.39 0 107.78 0 0 Z " fill="#436AF4" transform="translate(0,0)"/>
<path d="M0 0 C32.34 0 64.68 0 98 0 C98 53.46 98 106.92 98 162 C94.04202628 158.04202628 91.93630307 154.65186717 89.29394531 149.8137207 C87.71894392 147.06798901 85.96711887 144.60879586 84.01074219 142.12207031 C73.65478672 128.4458326 73.51775202 116.49416821 74.25 99.8125 C74.31035262 97.39401494 74.36507697 94.97538262 74.4140625 92.55664062 C74.54468029 86.7011477 74.74408443 80.85128806 75 75 C74.12786865 75.05236816 73.2557373 75.10473633 72.35717773 75.15869141 C69.09315313 75.33005975 65.83395062 75.45484527 62.56713867 75.54931641 C61.15914157 75.59935413 59.75165777 75.66741993 58.34545898 75.75439453 C46.70301316 76.45599531 46.70301316 76.45599531 42.61157227 72.95800781 C40.79373112 70.38485451 39.37104711 67.83309176 38 65 C37.27412553 63.81522549 36.53783403 62.63668002 35.78515625 61.46875 C35.21667969 60.4890625 34.64820313 59.509375 34.0625 58.5 C33.18271484 56.99953125 33.18271484 56.99953125 32.28515625 55.46875 C31 53 31 53 31 51 C45.52 51 60.04 51 75 51 C75 44.4 75 37.8 75 31 C73.30472168 31.04713135 71.60944336 31.0942627 69.86279297 31.14282227 C64.24731265 31.28823403 58.63210339 31.39148406 53.01524162 31.46630955 C49.61097506 31.51319065 46.2087534 31.5767058 42.80566406 31.67895508 C38.88892545 31.79589429 34.97300026 31.8392003 31.0546875 31.87890625 C29.83884979 31.92535782 28.62301208 31.97180939 27.37033081 32.01966858 C19.10986099 32.02459113 19.10986099 32.02459113 15.97183228 29.12765503 C14.40671657 26.81731492 13.17778541 24.52675805 12 22 C11.4117041 21.03191406 10.8234082 20.06382813 10.21728516 19.06640625 C9.74597168 18.24011719 9.2746582 17.41382812 8.7890625 16.5625 C8.26699219 15.64855469 7.74492188 14.73460938 7.20703125 13.79296875 C6.68496094 12.87128906 6.16289063 11.94960937 5.625 11 C4.80708984 9.57107422 4.80708984 9.57107422 3.97265625 8.11328125 C0 1.13375235 0 1.13375235 0 0 Z " fill="#E7EDFC" transform="translate(57,97)"/>
<path d="M0 0 C32.01 0 64.02 0 97 0 C95.38503299 4.84490103 93.98455473 7.93580613 91.3125 12.125 C90.66925781 13.13820313 90.02601563 14.15140625 89.36328125 15.1953125 C88.99113495 15.75926727 88.61898865 16.32322205 88.23556519 16.90426636 C86.88940104 19.09155584 86.88940104 19.09155584 85.70803833 21.95535278 C81.72542909 30.36361646 81.72542909 30.36361646 77.13206482 32.05776978 C73.5750978 32.39096988 70.19704087 32.35117312 66.62890625 32.171875 C65.35144028 32.15489563 64.0739743 32.13791626 62.75779724 32.12042236 C59.37855335 32.0647527 56.00924293 31.95730063 52.63275146 31.82397461 C49.18116666 31.70064194 45.7285491 31.64629393 42.27539062 31.5859375 C35.51385082 31.45383621 28.75828335 31.24687215 22 31 C22 37.6 22 44.2 22 51 C36.85 51 51.7 51 67 51 C64.36 55.62 61.72 60.24 59 65 C58.17242187 66.92585938 57.34484375 68.85171875 56.4921875 70.8359375 C55.04980469 73.22167969 55.04980469 73.22167969 53 75 C47.65361017 76.22234181 42.5654584 75.94825594 37.125 75.625 C35.65900548 75.57479471 34.19284631 75.52917493 32.7265625 75.48828125 C29.14760083 75.37850666 25.57484883 75.20625348 22 75 C22.02664734 75.60704773 22.05329468 76.21409546 22.08074951 76.83953857 C22.35008901 83.26486694 22.52874395 89.68855171 22.65917969 96.11816406 C22.71884775 98.50424485 22.80022005 100.88990036 22.90527344 103.27441406 C23.62841682 120.13358035 21.64611539 131.17271999 11.53251648 144.85638428 C9.04243335 148.33940154 6.94174494 152.03972287 4.8125 155.75 C3.57732553 157.86261715 2.31659204 159.93598397 1 162 C0.67 162 0.34 162 0 162 C0 108.54 0 55.08 0 0 Z " fill="#EBEFFC" transform="translate(162,97)"/>
<path d="M0 0 C12.89072255 -0.0231211 25.7814402 -0.04091389 38.67217922 -0.05181217 C44.65719266 -0.05704151 50.64219196 -0.06414008 56.62719727 -0.07543945 C62.39783429 -0.08626653 68.16845768 -0.09227645 73.93910408 -0.09487724 C76.14602943 -0.09673182 78.352954 -0.10035304 80.55987358 -0.10573006 C83.63946041 -0.1129381 86.71899014 -0.11399104 89.79858398 -0.11352539 C90.72071182 -0.11712067 91.64283966 -0.12071594 92.59291077 -0.12442017 C98.88594784 -0.11405216 98.88594784 -0.11405216 100 1 C100.09683581 3.07560806 100.12186902 5.15457204 100.12025452 7.23243713 C100.12110894 7.89074349 100.12196337 8.54904984 100.12284368 9.22730488 C100.1245003 11.44917106 100.11897418 13.67096295 100.11352539 15.89282227 C100.11324353 17.47915648 100.11340123 19.06549082 100.1139679 20.65182495 C100.11425592 24.97188722 100.10835837 29.29192197 100.10139394 33.61197782 C100.09516125 38.12168315 100.09455667 42.63138905 100.09336853 47.14109802 C100.09025496 55.68694374 100.08204124 64.23277674 100.07201904 72.77861685 C100.06085869 82.50517633 100.05534765 92.23173642 100.05032361 101.95830071 C100.03985864 121.97220759 100.02225871 141.98610299 100 162 C100.66 162 101.32 162 102 162 C102.33 158.7 102.66 155.4 103 152 C103.33 152 103.66 152 104 152 C104.33 101.84 104.66 51.68 105 0 C137.34 0 169.68 0 203 0 C203 0.66 203 1.32 203 2 C170.99 2 138.98 2 106 2 C106.33 54.8 106.66 107.6 107 162 C109.64 157.71 112.28 153.42 115 149 C116.66355027 146.33138811 118.32864109 143.66372827 120 141 C121 143 121 143 120.546875 144.8046875 C119.09323894 148.581291 117.77820564 151.96923021 115 155 C114.67 155 114.34 155 114 155 C113.71125 156.27875 113.4225 157.5575 113.125 158.875 C112.45897517 161.82453855 112.19797403 162.80202597 110 165 C109.34 164.67 108.68 164.34 108 164 C107.67 164.66 107.34 165.32 107 166 C106.05125 165.814375 105.1025 165.62875 104.125 165.4375 C101.10131207 164.71313368 101.10131207 164.71313368 99 166 C95.77048233 165.17072991 94.33944279 164.48862998 92.41796875 161.72265625 C92.01191406 160.84480469 91.60585937 159.96695313 91.1875 159.0625 C90.76855469 158.18722656 90.34960938 157.31195313 89.91796875 156.41015625 C89 154 89 154 89 151 C87.35 150.34 85.7 149.68 84 149 C83.67 146.36 83.34 143.72 83 141 C82.01 140.67 81.02 140.34 80 140 C78.8125 136.4375 78.8125 136.4375 78 133 C77.34 133 76.68 133 76 133 C75.02360569 130.07081707 74.87863819 128.20974262 74.88647461 125.16137695 C74.88658791 123.69019157 74.88658791 123.69019157 74.88670349 122.18928528 C74.89186478 121.13295395 74.89702606 120.07662262 74.90234375 118.98828125 C74.9037587 117.90491989 74.90517365 116.82155853 74.90663147 115.70536804 C74.91223441 112.24105075 74.92478742 108.7767978 74.9375 105.3125 C74.94251462 102.96549572 74.94707759 100.61849044 74.95117188 98.27148438 C74.96220479 92.51430092 74.9789458 86.75715506 75 81 C74.34 81 73.68 81 73 81 C72.67 80.34 72.34 79.68 72 79 C71.20303711 78.98018066 70.40607422 78.96036133 69.58496094 78.93994141 C65.97297528 78.84466752 62.36156601 78.73499693 58.75 78.625 C57.49574219 78.5940625 56.24148437 78.563125 54.94921875 78.53125 C53.74394531 78.49257812 52.53867188 78.45390625 51.296875 78.4140625 C50.18666992 78.3826416 49.07646484 78.3512207 47.93261719 78.31884766 C45.08256534 78.00897688 43.37290933 77.5755701 41 76 C40.0234375 73.87109375 40.0234375 73.87109375 39.375 71.4375 C38.7597305 69.05256234 38.7597305 69.05256234 38 67 C37.01 66.505 37.01 66.505 36 66 C35.28027217 64.26611024 34.56235941 62.53138037 33.86328125 60.7890625 C32.68826472 58.35396037 31.03131866 56.75113677 29 55 C29.99 54.505 29.99 54.505 31 54 C31 53.34 31 52.68 31 52 C32.26706787 51.97494385 33.53413574 51.9498877 34.83959961 51.92407227 C39.52297779 51.83018004 44.2062013 51.72991565 48.8894043 51.62768555 C50.91964104 51.58426759 52.94991592 51.54259774 54.98022461 51.50268555 C57.89188151 51.44514854 60.80334514 51.38140722 63.71484375 51.31640625 C65.08514992 51.29133751 65.08514992 51.29133751 66.48313904 51.26576233 C70.56789316 51.5769315 70.56789316 51.5769315 74 50 C74.23678716 47.30764224 74.42198025 44.63501844 74.5625 41.9375 C74.62727539 40.79958008 74.62727539 40.79958008 74.69335938 39.63867188 C74.79973633 37.75934562 74.90039934 35.87969756 75 34 C74.29256149 34.00444122 73.58512299 34.00888245 72.85624695 34.01345825 C66.19078621 34.0535248 59.52535905 34.08397919 52.85980511 34.10362434 C49.43293307 34.11406363 46.0061605 34.12822532 42.5793457 34.15087891 C38.64014881 34.17675686 34.70099226 34.18647162 30.76171875 34.1953125 C29.53039719 34.20563507 28.29907562 34.21595764 27.03044128 34.22659302 C25.88948502 34.22674408 24.74852875 34.22689514 23.57299805 34.22705078 C22.567061 34.231492 21.56112396 34.23593323 20.52470398 34.24050903 C18 34 18 34 15 32 C14.3125 28.875 14.3125 28.875 14 26 C13.34 26 12.68 26 12 26 C12 25.01 12 24.02 12 23 C10.68 22.67 9.36 22.34 8 22 C7.87625 21.071875 7.87625 21.071875 7.75 20.125 C7.18741541 17.81562433 7.18741541 17.81562433 4.9375 16.75 C4.298125 16.5025 3.65875 16.255 3 16 C3.66 15.67 4.32 15.34 5 15 C4.54658132 13.72740489 4.08704773 12.45698757 3.625 11.1875 C3.36976562 10.47980469 3.11453125 9.77210937 2.8515625 9.04296875 C1.9734231 6.75226641 1.9734231 6.75226641 0 4 C0 2.68 0 1.36 0 0 Z M1 2 C4.86831889 9.09191796 8.75911949 16.14139792 12.8125 23.125 C13.54629883 24.39730469 13.54629883 24.39730469 14.29492188 25.6953125 C14.76091797 26.4996875 15.22691406 27.3040625 15.70703125 28.1328125 C16.1244458 28.85355957 16.54186035 29.57430664 16.97192383 30.31689453 C17.89043213 31.96871409 17.89043213 31.96871409 19 33 C20.77991924 33.09370624 22.56356739 33.11744271 24.34594727 33.11352539 C25.4870546 33.11344986 26.62816193 33.11337433 27.80384827 33.11329651 C29.66631447 33.10555458 29.66631447 33.10555458 31.56640625 33.09765625 C32.83016586 33.0962413 34.09392548 33.09482635 35.39598083 33.09336853 C38.76124889 33.08870582 42.1264499 33.0797148 45.49169922 33.06866455 C48.9234967 33.05844846 52.35530109 33.05387049 55.78710938 33.04882812 C62.52476064 33.0377738 69.26237111 33.02049637 76 33 C76 39.6 76 46.2 76 53 C61.48 53 46.96 53 32 53 C33.40621493 56.51553733 34.62943635 59.24282924 36.56640625 62.390625 C37.05173828 63.18210938 37.53707031 63.97359375 38.03710938 64.7890625 C38.54048828 65.60117188 39.04386719 66.41328125 39.5625 67.25 C40.32336914 68.49136719 40.32336914 68.49136719 41.09960938 69.7578125 C43.28071095 73.58255618 43.28071095 73.58255618 46 77 C48.21855264 77.08783542 50.43988496 77.10694609 52.66015625 77.09765625 C53.32462265 77.0962413 53.98908905 77.09482635 54.6736908 77.09336853 C56.80333899 77.08775518 58.93288339 77.07520054 61.0625 77.0625 C62.50325369 77.05748671 63.94400903 77.05292351 65.38476562 77.04882812 C68.92321102 77.03778145 72.46159539 77.02050792 76 77 C75.97113205 77.60482712 75.9422641 78.20965424 75.91252136 78.83280945 C75.62045349 85.24191201 75.42709311 91.64907518 75.28588867 98.06323242 C75.22129564 100.44259608 75.133179 102.82146072 75.01928711 105.19897461 C74.20432809 122.67449866 76.75071902 133.76088815 87.36947632 147.79853821 C89.87020533 151.1749132 92.05007511 154.73627614 94.25 158.3125 C95.46929873 160.22822301 96.70725585 162.13305153 98 164 C98.33 164 98.66 164 99 164 C99 110.54 99 57.08 99 2 C66.66 2 34.32 2 1 2 Z " fill="#516DCA" transform="translate(56,95)"/>
<path d="M0 0 C32.01 0 64.02 0 97 0 C94.75 6.75 94.75 6.75 92 9 C92 7.68 92 6.36 92 5 C87.38 5 82.76 5 78 5 C77.505 3.515 77.505 3.515 77 2 C76.08989166 2.01474869 75.17978333 2.02949738 74.24209595 2.04469299 C65.67799436 2.18256933 57.11383385 2.31554193 48.54957008 2.4429636 C44.14628 2.50865123 39.74303651 2.57625542 35.33984375 2.64819336 C31.09296883 2.71750768 26.84604537 2.78184808 22.59904099 2.84269524 C20.9762535 2.86682801 19.35349195 2.89277315 17.73076248 2.92053413 C15.46329049 2.9590198 13.19581301 2.99114324 10.92822266 3.02172852 C9.63582672 3.04171402 8.34343079 3.06169952 7.01187134 3.08229065 C4 3 4 3 2 2 C1.67 2.66 1.34 3.32 1 4 C1.99 4.33 2.98 4.66 4 5 C3.01 5 2.02 5 1 5 C1.33 54.5 1.66 104 2 155 C3.485 153.02 3.485 153.02 5 151 C5.66 151.33 6.32 151.66 7 152 C6.02526874 153.66926454 5.04510211 155.33535642 4.0625 157 C3.24458984 158.3921875 3.24458984 158.3921875 2.41015625 159.8125 C1.94480469 160.534375 1.47945312 161.25625 1 162 C0.67 162 0.34 162 0 162 C0 108.54 0 55.08 0 0 Z " fill="#DDEAFE" transform="translate(162,97)"/>
<path d="M0 0 C0.495 1.98 0.495 1.98 1 4 C0.01 4.33 -0.98 4.66 -2 5 C-2.33 6.32 -2.66 7.64 -3 9 C-12.57 9 -22.14 9 -32 9 C-31.96519531 12.62355469 -31.93039063 16.24710938 -31.89453125 19.98046875 C-31.87113156 23.49193535 -31.85291726 27.00339324 -31.83520508 30.51489258 C-31.82012346 32.95438528 -31.79965531 35.3938509 -31.77368164 37.83325195 C-31.73727188 41.34072559 -31.72026711 44.84784054 -31.70703125 48.35546875 C-31.69154739 49.44522507 -31.67606354 50.53498138 -31.66011047 51.65776062 C-31.65869972 58.01244335 -32.01588173 61.89651699 -36.5625 66.625 C-37.2740625 67.305625 -37.2740625 67.305625 -38 68 C-38.66 68.99 -39.32 69.98 -40 71 C-40.66 70.67 -41.32 70.34 -42 70 C-41.57621063 69.42142242 -41.15242126 68.84284485 -40.71578979 68.24673462 C-36.03184202 61.28685597 -35.12595683 55.92956627 -35.1953125 47.6484375 C-35.18160614 46.50839264 -35.16789978 45.36834778 -35.15377808 44.1937561 C-35.11667703 40.58709532 -35.12017998 36.9818235 -35.125 33.375 C-35.10685951 30.91534325 -35.0860526 28.45570463 -35.0625 25.99609375 C-35.0058628 19.99659583 -35.00425278 14.0006727 -35 8 C-24.77 8 -14.54 8 -4 8 C-3.34 6.35 -2.68 4.7 -2 3 C-1.34 2.01 -0.68 1.02 0 0 Z " fill="#5975E0" transform="translate(219,164)"/>
<path d="M0 0 C1 3 1 3 0.29296875 4.90234375 C-0.07183594 5.57394531 -0.43664062 6.24554688 -0.8125 6.9375 C-1.16957031 7.60652344 -1.52664062 8.27554688 -1.89453125 8.96484375 C-2.44173828 9.97224609 -2.44173828 9.97224609 -3 11 C-3.67127626 12.33101856 -4.33931905 13.66369057 -5 15 C-5.66 15 -6.32 15 -7 15 C-7 15.99 -7 16.98 -7 18 C-7.66 18 -8.32 18 -9 18 C-9.309375 18.969375 -9.61875 19.93875 -9.9375 20.9375 C-11 24 -11 24 -12 25 C-13.77991924 25.09370624 -15.56356739 25.11744271 -17.34594727 25.11352539 C-18.4870546 25.11344986 -19.62816193 25.11337433 -20.80384827 25.11329651 C-22.0454924 25.10813522 -23.28713654 25.10297394 -24.56640625 25.09765625 C-26.46204567 25.09553383 -26.46204567 25.09553383 -28.39598083 25.09336853 C-31.76124889 25.08870582 -35.1264499 25.0797148 -38.49169922 25.06866455 C-41.9234967 25.05844846 -45.35530109 25.05387049 -48.78710938 25.04882812 C-55.52476064 25.0377738 -62.26237111 25.02049637 -69 25 C-69 30.94 -69 36.88 -69 43 C-55.47 43 -41.94 43 -28 43 C-28 43.33 -28 43.66 -28 44 C-42.19 44 -56.38 44 -71 44 C-71 37.4 -71 30.8 -71 24 C-68.44306396 24.09595459 -68.44306396 24.09595459 -65.83447266 24.19384766 C-60.16691709 24.38500929 -54.50188417 24.49134357 -48.83133888 24.54146767 C-45.39571596 24.574879 -41.96756767 24.64095391 -38.53466797 24.78515625 C-23.92188717 26.04133915 -23.92188717 26.04133915 -10.78845215 21.23425293 C-7.32501218 16.96546202 -5.36555515 12.27634082 -3.70770264 7.07391357 C-2.82079645 4.47484628 -1.52642631 2.27434635 0 0 Z " fill="#5671D0" transform="translate(255,104)"/>
<path d="M0 0 C0.99 0.33 1.98 0.66 3 1 C2.99777939 1.62782883 2.99555878 2.25565765 2.99327087 2.9025116 C2.97113857 9.43996613 2.95606016 15.97741001 2.94506836 22.51489258 C2.94004122 24.9543501 2.9332186 27.39380461 2.92456055 29.83325195 C2.91242417 33.34066511 2.90675545 36.84803841 2.90234375 40.35546875 C2.89718246 41.44522507 2.89202118 42.53498138 2.88670349 43.65776062 C2.88659019 45.18878166 2.88659019 45.18878166 2.88647461 46.75073242 C2.884254 47.64563889 2.88203339 48.54054535 2.87974548 49.46257019 C3.00305814 52.06452827 3.42421976 54.4628987 4 57 C1.48793289 54.76391258 0.13021176 52.89788989 -0.35754395 49.53451538 C-0.46295871 46.39516103 -0.44895266 43.27735038 -0.390625 40.13671875 C-0.38496521 38.98959915 -0.37930542 37.84247955 -0.37347412 36.66059875 C-0.35111197 33.00247187 -0.30091327 29.34533006 -0.25 25.6875 C-0.22993491 23.20509229 -0.21168416 20.7226692 -0.1953125 18.24023438 C-0.15124759 12.15982105 -0.08433594 6.07998091 0 0 Z " fill="#CEDDFE" transform="translate(132,172)"/>
<path d="M0 0 C0.33 0 0.66 0 1 0 C1 6.93 1 13.86 1 21 C-3.32621393 22.08155348 -7.2855018 22.12578576 -11.703125 22.09765625 C-12.95980988 22.09553383 -12.95980988 22.09553383 -14.24188232 22.09336853 C-16.91129157 22.08778197 -19.5806162 22.07523194 -22.25 22.0625 C-24.06249879 22.05748326 -25.87499889 22.05292066 -27.6875 22.04882812 C-32.12503248 22.03781694 -36.56250191 22.02056155 -41 22 C-40.67 23.65 -40.34 25.3 -40 27 C-44 22.25 -44 22.25 -44 20 C-29.48 20 -14.96 20 0 20 C0 13.4 0 6.8 0 0 Z " fill="#CEDCFE" transform="translate(132,128)"/>
<path d="M0 0 C0.66 0.33 1.32 0.66 2 1 C0.68 3.31 -0.64 5.62 -2 8 C-21.14 8 -40.28 8 -60 8 C-60 7.67 -60 7.34 -60 7 C-59.30508957 6.99857498 -58.61017914 6.99714996 -57.89421082 6.99568176 C-51.34614094 6.97785419 -44.79870479 6.93624943 -38.25095654 6.86790943 C-34.88458022 6.83361338 -31.51865891 6.80852565 -28.15209961 6.80444336 C-24.28180679 6.79518939 -20.41296085 6.75427251 -16.54296875 6.70703125 C-14.72879707 6.71293022 -14.72879707 6.71293022 -12.87797546 6.71894836 C-11.75703995 6.69930527 -10.63610443 6.67966217 -9.48120117 6.65942383 C-8.49302902 6.65276199 -7.50485687 6.64610016 -6.48674011 6.63923645 C-3.75702032 6.22096032 -3.75702032 6.22096032 -2.21992493 3.52128601 C-1.8173497 2.68926163 -1.41477448 1.85723724 -1 1 C-0.67 0.67 -0.34 0.34 0 0 Z " fill="#DBEAFE" transform="translate(244,120)"/>
<path d="M0 0 C-0.33 1.32 -0.66 2.64 -1 4 C-11.23 4 -21.46 4 -32 4 C-29.329348 1.329348 -27.91812042 1.70877686 -24.1875 1.62109375 C-23.02992188 1.58693359 -21.87234375 1.55277344 -20.6796875 1.51757812 C-19.46539062 1.49115234 -18.25109375 1.46472656 -17 1.4375 C-14.60406272 1.37772874 -12.20821701 1.31412358 -9.8125 1.24609375 C-8.74644531 1.22216553 -7.68039063 1.1982373 -6.58203125 1.17358398 C-4.06549745 1.00440324 -2.46527381 0 0 0 Z " fill="#CDDEFE" transform="translate(216,168)"/>
<path d="M0 0 C0.33 0 0.66 0 1 0 C1.07601651 7.33228928 1.12858578 14.66447707 1.16479492 21.99707031 C1.17988855 24.49190061 1.20036548 26.98670435 1.22631836 29.48144531 C1.2626754 33.06582186 1.27972078 36.64984782 1.29296875 40.234375 C1.30845261 41.35116638 1.32393646 42.46795776 1.33988953 43.61859131 C1.34011612 44.65936829 1.34034271 45.70014526 1.34057617 46.77246094 C1.34723801 47.68735291 1.35389984 48.60224487 1.36076355 49.54486084 C0.93425723 52.44740565 -0.079323 53.82660599 -2 56 C-2.042721 54.33388095 -2.04063832 52.66617115 -2 51 C-1.505 50.505 -1.505 50.505 -1 50 C-0.91201445 48.4702814 -0.89307011 46.93651567 -0.90234375 45.40429688 C-0.90564697 44.42658325 -0.9089502 43.44886963 -0.91235352 42.44152832 C-0.92065186 41.37801147 -0.9289502 40.31449463 -0.9375 39.21875 C-0.94128662 38.13493042 -0.94507324 37.05111084 -0.94897461 35.93444824 C-0.96124335 32.45625955 -0.97987569 28.97815161 -1 25.5 C-1.02645852 20.92708565 -1.0465231 16.35421161 -1.0625 11.78125 C-1.07079834 10.71773315 -1.07909668 9.65421631 -1.08764648 8.55847168 C-1.09094971 7.58075806 -1.09425293 6.60304443 -1.09765625 5.59570312 C-1.10289307 4.73046021 -1.10812988 3.86521729 -1.11352539 2.97375488 C-1 1 -1 1 0 0 Z " fill="#D9EBFE" transform="translate(183,172)"/>
<path d="M0 0 C0.495 1.98 0.495 1.98 1 4 C0.01 4.33 -0.98 4.66 -2 5 C-2.33 6.32 -2.66 7.64 -3 9 C-12.9 9 -22.8 9 -33 9 C-33.33 9.99 -33.66 10.98 -34 12 C-34 10.68 -34 9.36 -34 8 C-24.1 8 -14.2 8 -4 8 C-3.34 6.35 -2.68 4.7 -2 3 C-1.34 2.01 -0.68 1.02 0 0 Z " fill="#546CCE" transform="translate(219,164)"/>
<path d="M0 0 C14.52 0 29.04 0 44 0 C43.01 1.32 42.02 2.64 41 4 C40.505 2.515 40.505 2.515 40 1 C26.8 1 13.6 1 0 1 C0 0.67 0 0.34 0 0 Z " fill="#D6E7FE" transform="translate(185,148)"/>
<path d="M0 0 C1.32 0.33 2.64 0.66 4 1 C2.375 6.75 2.375 6.75 -1 9 C-1.33 9.99 -1.66 10.98 -2 12 C-2.66 12 -3.32 12 -4 12 C-2 3.42857143 -2 3.42857143 0 0 Z " fill="#4B6BDE" transform="translate(259,97)"/>
<path d="M0 0 C1 2 1 2 0.546875 3.8046875 C-1.51599978 9.16411708 -3.81429581 13.01361505 -8 17 C-8.66 16.67 -9.32 16.34 -10 16 C-8.70902308 13.89540739 -7.41724641 11.79131292 -6.125 9.6875 C-5.76019531 9.09259766 -5.39539063 8.49769531 -5.01953125 7.88476562 C-3.38588461 5.22637701 -1.73104176 2.59656263 0 0 Z " fill="#5974D3" transform="translate(176,236)"/>
<path d="M0 0 C3.3 0 6.6 0 10 0 C10 0.33 10 0.66 10 1 C7.03 1 4.06 1 1 1 C1.51691406 1.84304687 2.03382812 2.68609375 2.56640625 3.5546875 C3.22511719 4.65039062 3.88382812 5.74609375 4.5625 6.875 C5.55443359 8.51082031 5.55443359 8.51082031 6.56640625 10.1796875 C7.03949219 11.11039063 7.51257813 12.04109375 8 13 C7.67 13.66 7.34 14.32 7 15 C4.19951635 13.59975817 3.97945497 11.57091086 2.86328125 8.7890625 C1.68826472 6.35396037 0.03131866 4.75113677 -2 3 C-1.34 2.67 -0.68 2.34 0 2 C0 1.34 0 0.68 0 0 Z " fill="#5971D4" transform="translate(87,147)"/>
<path d="M0 0 C0.33 0 0.66 0 1 0 C1 4.29 1 8.58 1 13 C-2.45397435 9.54602565 -3.56375905 8.30872286 -5 4 C-3.68 4 -2.36 4 -1 4 C-0.67 2.68 -0.34 1.36 0 0 Z " fill="#D6EAFD" transform="translate(153,244)"/>
<path d="M0 0 C0.66 0.33 1.32 0.66 2 1 C1.1875 3.4375 1.1875 3.4375 0 6 C-0.99 6.33 -1.98 6.66 -3 7 C-3.0825 7.94875 -3.165 8.8975 -3.25 9.875 C-4 13 -4 13 -6.0625 14.375 C-6.701875 14.58125 -7.34125 14.7875 -8 15 C-6.62712658 11.30123909 -4.93644547 8.0485524 -2.875 4.6875 C-2.33617187 3.80449219 -1.79734375 2.92148438 -1.2421875 2.01171875 C-0.83226562 1.34785156 -0.42234375 0.68398437 0 0 Z " fill="#5771CE" transform="translate(228,149)"/>
<path d="M0 0 C7.26 0 14.52 0 22 0 C22 0.33 22 0.66 22 1 C12.595 1.495 12.595 1.495 3 2 C3.33 3.65 3.66 5.3 4 7 C0 2.25 0 2.25 0 0 Z " fill="#D5E8FE" transform="translate(88,148)"/>
<path d="M0 0 C0.66 0 1.32 0 2 0 C0.23570801 4.97209562 -2.3939166 9.43438061 -5 14 C-5.33 14 -5.66 14 -6 14 C-5.55693683 9.39214308 -5.1077493 6.48067921 -2 3 C-1.34 2.01 -0.68 1.02 0 0 Z " fill="#D2E3FC" transform="translate(252,106)"/>
<path d="M0 0 C2.64 0 5.28 0 8 0 C6.90931332 3.77545388 6.0916909 6.47043472 3 9 C3.0928125 7.329375 3.0928125 7.329375 3.1875 5.625 C3.125625 4.42875 3.06375 3.2325 3 2 C2.01 1.34 1.02 0.68 0 0 Z " fill="#CDE1FD" transform="translate(251,97)"/>
<path d="M0 0 C0.6875 1.75 0.6875 1.75 1 4 C-0.4375 6.25 -0.4375 6.25 -2 8 C-2.99 7.67 -3.98 7.34 -5 7 C-3.75023244 3.34683329 -3.32901247 2.21934164 0 0 Z " fill="#496DD8" transform="translate(168,252)"/>
<path d="M0 0 C0.99 0.33 1.98 0.66 3 1 C4.1875 3.5625 4.1875 3.5625 5 6 C4.01 6 3.02 6 2 6 C2 5.34 2 4.68 2 4 C0.02 4.99 0.02 4.99 -2 6 C-1.125 1.125 -1.125 1.125 0 0 Z " fill="#4867EA" transform="translate(54,98)"/>
<path d="M0 0 C1.5 1.25 1.5 1.25 3 3 C3 4.32 3 5.64 3 7 C3.99 7.33 4.98 7.66 6 8 C6.6875 10.0625 6.6875 10.0625 7 12 C5.68 11.67 4.36 11.34 3 11 C2.67 8.69 2.34 6.38 2 4 C1.34 4 0.68 4 0 4 C0 2.68 0 1.36 0 0 Z " fill="#4A69E4" transform="translate(89,154)"/>
<path d="M0 0 C0.66 0.33 1.32 0.66 2 1 C1.02526874 2.66926454 0.04510211 4.33535642 -0.9375 6 C-1.75541016 7.3921875 -1.75541016 7.3921875 -2.58984375 8.8125 C-3.05519531 9.534375 -3.52054688 10.25625 -4 11 C-4.33 11 -4.66 11 -5 11 C-5 8.69 -5 6.38 -5 4 C-4.34 4 -3.68 4 -3 4 C-1.36323743 2.0399719 -1.36323743 2.0399719 0 0 Z " fill="#C7DFFB" transform="translate(167,248)"/>
<path d="M0 0 C0 3.57575896 -1.08840607 5.05295935 -3 8 C-3.75 6.25 -3.75 6.25 -4 4 C-2.0625 1.75 -2.0625 1.75 0 0 Z M-6 8 C-5.34 8.33 -4.68 8.66 -4 9 C-5.32 10.32 -6.64 11.64 -8 13 C-7.125 9.125 -7.125 9.125 -6 8 Z " fill="#4569E5" transform="translate(228,154)"/>
<path d="M0 0 C1.32 0.33 2.64 0.66 4 1 C4.12375 1.639375 4.2475 2.27875 4.375 2.9375 C4.684375 3.9584375 4.684375 3.9584375 5 5 C5.66 5.33 6.32 5.66 7 6 C6.01 7.485 6.01 7.485 5 9 C3.35 6.03 1.7 3.06 0 0 Z " fill="#D2E6FB" transform="translate(137,231)"/>
<path d="M0 0 C2.63978826 3.18595135 5.10498388 6.30970546 7 10 C6.67 10.66 6.34 11.32 6 12 C3 10 3 10 2.3125 6.875 C2.209375 5.92625 2.10625 4.9775 2 4 C1.34 4 0.68 4 0 4 C0 2.68 0 1.36 0 0 Z " fill="#5E76D1" transform="translate(68,117)"/>
<path d="M0 0 C1.98 0.99 1.98 0.99 4 2 C4 3.32 4 4.64 4 6 C4.66 6.33 5.32 6.66 6 7 C5.01 7 4.02 7 3 7 C0 2.77777778 0 2.77777778 0 0 Z " fill="#D0DEFC" transform="translate(143,240)"/>
<path d="M0 0 C3 2 3 2 3.6875 4.625 C3.790625 5.40875 3.89375 6.1925 4 7 C3.01 6.67 2.02 6.34 1 6 C-0.1875 3.4375 -0.1875 3.4375 -1 1 C-0.67 0.67 -0.34 0.34 0 0 Z " fill="#DAE6FC" transform="translate(68,113)"/>
</svg>
