<?xml version="1.0" standalone="no"?>
<!DOCTYPE svg PUBLIC "-//W3C//DTD SVG 20010904//EN"
 "http://www.w3.org/TR/2001/REC-SVG-20010904/DTD/svg10.dtd">
<svg version="1.0" xmlns="http://www.w3.org/2000/svg"
 width="204.000000pt" height="192.000000pt" viewBox="0 0 204.000000 192.000000"
 preserveAspectRatio="xMidYMid meet">

<g transform="translate(0.000000,192.000000) scale(0.100000,-0.100000)"
fill="#000000" stroke="none">
<path d="M1382 1567 c-8 -9 -12 -147 -14 -418 -3 -396 -3 -405 -26 -462 -45
-110 -160 -198 -279 -213 -140 -17 -295 71 -356 204 -20 42 -22 67 -25 240
l-4 192 30 30 c50 50 128 37 161 -27 7 -13 11 -79 11 -163 0 -112 4 -149 17
-177 48 -102 195 -104 251 -4 21 36 22 52 22 235 l0 196 -25 12 c-19 8 -28 8
-40 -2 -12 -10 -15 -43 -15 -194 0 -214 -5 -231 -65 -231 -58 0 -65 21 -65
193 0 155 -5 175 -57 224 -55 52 -143 64 -213 28 -77 -39 -97 -95 -99 -275 -3
-234 31 -347 134 -444 130 -123 317 -157 473 -86 109 50 182 130 229 251 l26
69 -1 409 c-1 428 -1 425 -43 426 -9 0 -21 -6 -27 -13z"/>
<path d="M1232 1368 c-9 -9 -12 -84 -12 -300 0 -323 -1 -330 -68 -390 -99 -89
-231 -66 -300 52 -25 42 -27 55 -32 204 -4 137 -7 160 -22 170 -13 8 -23 8
-35 0 -16 -10 -18 -30 -18 -175 0 -190 10 -229 75 -297 63 -65 111 -86 200
-86 91 0 132 17 199 79 79 74 82 88 79 446 l-3 304 -25 3 c-14 2 -31 -3 -38
-10z"/>
</g>
</svg>
